<svg xmlns="http://www.w3.org/2000/svg" fill="none" viewBox="0 0 192 36" id="svg_light" width="100%" height="100%"><defs><linearGradient gradientUnits="userSpaceOnUse" id="sf_e" x1="31.916" x2="41.153" y1="25.287" y2="10.172"><stop offset=".013" stop-color="#077D43"></stop><stop offset=".125" stop-color="#0A7D4D"></stop><stop offset=".306" stop-color="#0B7F4D"></stop><stop offset=".462" stop-color="#1DA64D"></stop><stop offset=".543" stop-color="#28BD4E"></stop><stop offset=".647" stop-color="#36D94E"></stop><stop offset=".755" stop-color="#37DC4E"></stop></linearGradient><linearGradient gradientUnits="userSpaceOnUse" id="sf_d" x1="45.077" x2="64.289" y1="32.519" y2="-.963"><stop stop-color="#56DD6F"></stop><stop offset=".904" stop-color="#22C23D"></stop></linearGradient><linearGradient gradientUnits="userSpaceOnUse" id="sf_c" x1="17.753" x2="16.192" y1="35.011" y2=".496"><stop stop-color="#098B4E"></stop><stop offset=".326" stop-color="#067A41"></stop><stop offset=".656" stop-color="#06753F"></stop><stop offset="1" stop-color="#066939"></stop></linearGradient><linearGradient gradientUnits="userSpaceOnUse" id="sf_b" x1="17.628" x2="17.002" y1="29.096" y2="15.332"><stop stop-color="#098B4E"></stop><stop offset=".326" stop-color="#067A41"></stop><stop offset=".656" stop-color="#06753F"></stop><stop offset="1" stop-color="#066939"></stop></linearGradient><clipPath id="sf_a"><rect fill="#fff" height="34" transform="translate(1 1)" width="62"></rect></clipPath></defs><g><g clip-path="url(#sf_a)"><path clip-rule="evenodd" d="M32 24.286c7.917-9.548 14.61-15.47 22.303-20.07 7.297-4.364 10.646-5.78 7.536 5.543a98.5 98.5 0 01-.437 1.553c-2.747 9.455-5.916 15.01-7.943 17.745-.382.516-.723.931-1.014 1.253-3.11 3.657-5.678 4.69-7.592 4.69-4.861 0-10.189-5.9-12.853-9.1-2.664 3.2-7.991 9.1-12.853 9.1-1.914 0-4.482-1.033-7.592-4.69C9.64 28.187 5.51 22.026 2.16 9.76-.95-1.565 2.4-.149 9.697 4.215 17.39 8.816 24.083 14.738 32 24.286z" fill-rule="evenodd" fill="url(#sf_e)"></path><path d="M54.303 4.216C46.61 8.816 39.917 14.738 32 24.286l.367.443.146.179.211.242c2.281 2.696 7.828 9.073 12.746 8.983 1.789-.033 4.172-1.046 7.017-4.526.872-1.006 2.24-2.959 3.753-6.09 1.596-2.84 3.428-6.83 5.162-12.204a98.53 98.53 0 00.437-1.554c3.11-11.323-.24-9.907-7.536-5.543z" fill="#37DC4E"></path><path clip-rule="evenodd" d="M45.299 33.296c1.714 0 4.013-.928 6.798-4.21 1.714-1.906 5.412-7.438 8.411-18.45C63.293.47 60.294 1.74 53.761 5.659 46.68 9.904 40.546 15.403 33.196 24.4c2.1 2.58 7.35 8.895 12.103 8.895z" fill-rule="evenodd" fill="url(#sf_d)"></path><path clip-rule="evenodd" d="M19.147 35c-1.914 0-4.482-1.033-7.592-4.69C9.64 28.187 5.51 22.026 2.16 9.76-.95-1.565 2.4-.149 9.697 4.215c7.907 4.728 14.758 10.853 22.968 20.876C30.319 27.965 24.455 35 19.147 35z" fill-rule="evenodd" fill="url(#sf_c)"></path><path clip-rule="evenodd" d="M19.025 34.138c-1.743 0-4.082-.943-6.914-4.282-1.743-1.939-5.505-7.565-8.555-18.766C.723.751 3.774 2.044 10.419 6.03c7.2 4.318 13.44 9.91 20.916 19.062-2.136 2.624-7.476 9.047-12.31 9.047z" fill-rule="evenodd" fill="url(#sf_b)"></path></g><path d="M119.051 9h-4.13v19.516h4.13V9zM71 9.847h4.63l3.253 13.092 3.754-13.092h3.504l3.754 13.092 3.253-13.092h4.63l-5.255 18.668h-5.006L84.39 17.484l-3.128 11.03h-5.005L71 9.848z" fill="#fff"></path><path clip-rule="evenodd" d="M111.918 28.516h-4.129v-1.212c-.876.97-2.253 1.575-4.13 1.575-3.628 0-6.506-3.03-6.506-7.03s3.003-7.03 6.506-7.03c1.877 0 3.129.605 4.13 1.575v-1.212h4.129v13.334zm-4.129-6.667c0-2.061-1.377-3.273-3.254-3.273s-3.253 1.212-3.253 3.273c0 2.06 1.376 3.273 3.253 3.273 1.877 0 3.254-1.212 3.254-3.273z" fill-rule="evenodd" fill="#fff"></path><path d="M122.054 9h4.129v19.516h-4.129V9z" fill="#fff"></path><path clip-rule="evenodd" d="M138.696 24.394c-.5.485-1.501.97-2.628.97-1.501 0-2.753-.485-3.378-1.819h9.76c.125-.485.125-.97.125-1.575 0-4-3.003-7.031-7.007-7.031-4.255 0-7.258 3.03-7.258 7.03S131.313 29 135.943 29c2.628 0 4.63-.97 6.006-2.788l-3.253-1.818zm-2.878-5.94c1.251 0 2.378.485 2.878 2.06h-5.881c.375-1.332 1.501-2.06 3.003-2.06z" fill-rule="evenodd" fill="#fff"></path><path d="M155.088 24.515c0 3.03-2.753 4.364-5.756 4.364-2.753 0-4.881-.97-5.882-3.151l3.504-1.94c.376.97 1.126 1.576 2.378 1.576 1 0 1.501-.242 1.501-.849 0-.523-.875-.764-1.994-1.072-1.993-.55-4.762-1.312-4.762-4.261 0-2.91 2.502-4.364 5.379-4.364 2.253 0 4.13.97 5.381 2.91l-3.504 1.818c-.374-.728-.875-1.212-1.877-1.212-.75 0-1.125.242-1.125.727.044.564.923.786 2.032 1.067 1.991.504 4.725 1.196 4.725 4.387zM161.97 23.788V19.06h3.003v-3.879h-2.878v-3.757l-4.129 1.212v2.545h-2.253v3.88h2.253v4.727c0 3.636 1.501 5.212 6.882 4.727V24.88c-1.877.121-2.878 0-2.878-1.091z" fill="#fff"></path><path clip-rule="evenodd" d="M173.859 25.363c1.126 0 2.127-.484 2.627-.97l3.255 1.819c-1.377 1.818-3.38 2.788-6.008 2.788-4.63 0-7.632-3.03-7.632-7.03s3.002-7.031 7.258-7.031c4.003 0 7.007 3.03 7.007 7.03 0 .606 0 1.091-.125 1.576h-9.761c.626 1.334 1.877 1.818 3.379 1.818zm2.502-4.848c-.375-1.576-1.626-2.06-2.877-2.06-1.502 0-2.629.727-3.004 2.06h5.881z" fill-rule="evenodd" fill="#fff"></path><path d="M191 19.424v-4.485c-1.752 0-3.629.848-4.129 2.667V15.18h-4.13v13.334h4.13v-6.06c0-2.667 2.377-3.273 4.129-3.031z" fill="#fff"></path></g></svg>